<svg width="49" height="49" viewBox="0 0 49 49" fill="none" xmlns="http://www.w3.org/2000/svg">
<path d="M26.8 6.5L28.4 39.9" stroke="#BABABA" stroke-width="1.5" stroke-miterlimit="10" stroke-linecap="round" stroke-linejoin="round"/>
<path d="M19.5 39.9L21.2 6.5" stroke="#BABABA" stroke-width="1.5" stroke-miterlimit="10" stroke-linecap="round" stroke-linejoin="round"/>
<path d="M47.3 0.800049H0.800049V6.50005H47.3V0.800049Z" stroke="#BABABA" stroke-width="1.5" stroke-miterlimit="10" stroke-linecap="round" stroke-linejoin="round"/>
<path d="M16.3 47.3001V41.8001C16.3 40.7001 17.2001 39.9001 18.2001 39.9001H29.7001C30.8001 39.9001 31.6 40.8001 31.6 41.8001V47.3001" stroke="#BABABA" stroke-width="1.5" stroke-miterlimit="10" stroke-linecap="round" stroke-linejoin="round"/>
<path d="M26.8 6.5L20.9 13.4L27.5 21.2L20 29.9L28.4 39.7" stroke="#BABABA" stroke-width="1.5" stroke-miterlimit="10" stroke-linecap="round" stroke-linejoin="round"/>
<path d="M21.2001 6.5L27.1001 13.4L20.5001 21.2L28.0001 29.9L19.6001 39.7" stroke="#BABABA" stroke-width="1.5" stroke-miterlimit="10" stroke-linecap="round" stroke-linejoin="round"/>
<path d="M0.800049 6.50005L5.70005 0.800049L10.5 6.40005L15.4 0.800049L20.2001 6.40005L25.1 0.800049L30 6.50005L34.9001 0.800049L39.8 6.50005L44.7001 0.800049" stroke="#BABABA" stroke-width="1.5" stroke-miterlimit="10" stroke-linecap="round" stroke-linejoin="round"/>
<path d="M0.800049 0.800049L5.70005 6.50005L10.5 0.800049L15.4 6.40005L20.2001 0.800049L25.1 6.40005L30 0.800049L34.9001 6.50005L39.8 0.800049L44.7001 6.50005" stroke="#BABABA" stroke-width="1.5" stroke-miterlimit="10" stroke-linecap="round" stroke-linejoin="round"/>
<path d="M2.70007 28.7C2.70007 30.4 4.20007 31.7 6.00007 31.4C7.10007 31.2 8.00007 30.3 8.20007 29.2C8.40007 27.8 7.60007 26.5 6.40007 26.1C5.90007 25.9 5.50007 25.4 5.50007 24.8V22.5" stroke="#BABABA" stroke-width="1.5" stroke-miterlimit="10" stroke-linecap="round" stroke-linejoin="round"/>
<path d="M5.50005 22.5001C6.43893 22.5001 7.20005 21.739 7.20005 20.8001C7.20005 19.8612 6.43893 19.1001 5.50005 19.1001C4.56116 19.1001 3.80005 19.8612 3.80005 20.8001C3.80005 21.739 4.56116 22.5001 5.50005 22.5001Z" stroke="#BABABA" stroke-width="1.5" stroke-miterlimit="10" stroke-linecap="round" stroke-linejoin="round"/>
<path d="M5.5 18.2V6.5" stroke="#BABABA" stroke-width="1.5" stroke-miterlimit="10" stroke-linecap="round" stroke-linejoin="round"/>
<path d="M20.7 13.5H14.8V11.3C14.8 8.6 17 6.5 19.6 6.5H22.3" stroke="#BABABA" stroke-width="1.5" stroke-miterlimit="10" stroke-linecap="round" stroke-linejoin="round"/>
<path d="M11.8 6.5V15.2C11.8 15.9 12.4 16.5 13.1 16.5H20.7" stroke="#BABABA" stroke-width="1.5" stroke-miterlimit="10" stroke-linecap="round" stroke-linejoin="round"/>
<path d="M0.800049 47.3H47.3" stroke="#BABABA" stroke-width="1.5" stroke-miterlimit="10" stroke-linecap="round" stroke-linejoin="round"/>
<path d="M47.3001 15.5C47.3001 17.3 45.9001 18.7 44.1001 18.7C43.1001 18.7 35.3001 18.7 34.5001 18.7C33.2001 18.7 32.1001 17.6 32.1001 16.3C32.1001 15 33.2001 13.9 34.5001 13.9C34.8001 13.9 35.1001 14 35.4001 14.1C35.8001 12.6 37.2001 11.5 38.8001 11.5C40.1001 11.5 41.2001 12.2 41.9001 13.2C42.5001 12.7 43.2001 12.3 44.1001 12.3C45.8001 12.3 47.3001 13.8 47.3001 15.5Z" stroke="#BABABA" stroke-width="1.5" stroke-miterlimit="10" stroke-linecap="round" stroke-linejoin="round"/>
<path d="M42.3 21.3999C43.4 21.3999 44.4001 22.2999 44.4001 23.4999C44.4001 22.3999 45.3 21.3999 46.5 21.3999" stroke="#BABABA" stroke-width="1.5" stroke-miterlimit="10" stroke-linecap="round" stroke-linejoin="round"/>
<path d="M33.1001 24.3C34.2001 24.3 35.2001 25.2 35.2001 26.4C35.2001 25.3 36.1001 24.3 37.3001 24.3" stroke="#BABABA" stroke-width="1.5" stroke-miterlimit="10" stroke-linecap="round" stroke-linejoin="round"/>
<path d="M40.2001 28.2C41.3001 28.2 42.3001 29.0999 42.3001 30.2999C42.3001 29.1999 43.2001 28.2 44.4001 28.2" stroke="#BABABA" stroke-width="1.5" stroke-miterlimit="10" stroke-linecap="round" stroke-linejoin="round"/>
<path d="M39.4001 41.4C39.4001 42.6 38.4001 43.5 37.3001 43.5C36.1001 43.5 35.2001 42.5 35.2001 41.4C35.2001 40.2 36.2001 37 37.3001 37C38.4001 37 39.4001 40.3 39.4001 41.4Z" stroke="#BABABA" stroke-width="1.5" stroke-miterlimit="10" stroke-linecap="round" stroke-linejoin="round"/>
<path d="M37.2001 43.6001V47.3001" stroke="#BABABA" stroke-width="1.5" stroke-miterlimit="10" stroke-linecap="round" stroke-linejoin="round"/>
<path d="M46 41.4C46 42.6 45.0001 43.5 43.9001 43.5C42.7001 43.5 41.8 42.5 41.8 41.4C41.8 40.2 42.8001 37 43.9001 37C45.1001 37 46 40.3 46 41.4Z" stroke="#BABABA" stroke-width="1.5" stroke-miterlimit="10" stroke-linecap="round" stroke-linejoin="round"/>
<path d="M43.9 43.6001V47.3001" stroke="#BABABA" stroke-width="1.5" stroke-miterlimit="10" stroke-linecap="round" stroke-linejoin="round"/>
<path d="M6.00005 41.4C6.00005 42.6 5.00005 43.5 3.90005 43.5C2.70005 43.5 1.80005 42.5 1.80005 41.4C1.80005 40.2 2.80005 37 3.90005 37C5.10005 37 6.00005 40.3 6.00005 41.4Z" stroke="#BABABA" stroke-width="1.5" stroke-miterlimit="10" stroke-linecap="round" stroke-linejoin="round"/>
<path d="M3.90002 43.6001V47.3001" stroke="#BABABA" stroke-width="1.5" stroke-miterlimit="10" stroke-linecap="round" stroke-linejoin="round"/>
<path d="M12.7 41.4C12.7 42.6 11.7 43.5 10.6 43.5C9.5 43.5 8.5 42.5 8.5 41.4C8.5 40.2 9.5 37 10.6 37C11.7 37 12.7 40.3 12.7 41.4Z" stroke="#BABABA" stroke-width="1.5" stroke-miterlimit="10" stroke-linecap="round" stroke-linejoin="round"/>
<path d="M10.6 43.6001V47.3001" stroke="#BABABA" stroke-width="1.5" stroke-miterlimit="10" stroke-linecap="round" stroke-linejoin="round"/>
</svg>
